# Blender v2.77 (sub 0) OBJ File: 'drzewo2.blend'
# www.blender.org
mtllib drzewo2_liscie.mtl
o Icosphere
v 0.076889 4.616257 -0.053216
v 2.135186 6.182892 1.978316
v -0.483476 5.989503 2.663202
v -2.769003 6.051614 -0.360298
v -1.080096 5.886165 -2.614090
v 1.709541 6.430102 -1.306326
v 0.537216 8.227888 2.302228
v -2.071490 8.600726 1.420234
v -1.924527 8.916108 -1.363649
v 0.764307 8.547909 -2.462913
v 2.632684 8.523053 0.543457
v 0.041753 10.065432 0.016332
v -0.463356 4.963565 1.383604
v 1.255519 4.982819 0.929769
v 0.641033 5.758509 2.037463
v 2.410717 5.511768 0.289149
v 1.212617 4.732309 -0.505473
v -1.245038 5.054343 0.103196
v -2.182781 5.997923 1.282025
v -0.700302 5.036685 -1.119144
v -1.738406 5.959510 -1.602616
v 0.343674 5.463912 -2.392291
v 2.594974 7.530045 0.794079
v 2.793679 7.151898 -0.820162
v 0.395191 7.439193 3.232030
v 1.606348 7.425997 2.299470
v -2.631987 7.387179 0.864640
v -1.981933 7.640957 2.420619
v -1.697266 7.510804 -2.223227
v -2.418069 7.280916 -0.740144
v 1.634491 7.359592 -2.235833
v -0.224581 7.294182 -2.505554
v 2.134735 8.416972 1.315509
v -0.418748 9.004160 1.953423
v -2.406784 8.651674 0.091564
v -0.664425 8.916722 -2.443277
v 1.952730 8.745966 -1.329937
v 0.142098 9.592680 1.446773
v 1.436119 9.563964 0.216999
v -1.190349 9.719231 0.860363
v -0.846586 10.021742 -1.213553
v 0.460133 9.717786 -1.381845
vn -0.0760 -0.9969 -0.0218
vn 0.3131 -0.8703 0.3802
vn -0.1768 -0.8820 0.4368
vn 0.6362 -0.3274 0.6985
vn 0.8176 -0.5751 -0.0268
vn -0.4660 -0.8847 0.0049
vn -0.3204 -0.8979 -0.3020
vn 0.4098 -0.8727 -0.2651
vn 0.9434 0.0112 0.3313
vn -0.1505 -0.5549 0.8182
vn 0.2591 -0.6287 0.7331
vn 0.2221 0.1227 0.9672
vn -0.8962 -0.3988 -0.1943
vn -0.7236 -0.5373 0.4332
vn -0.9779 0.0637 0.1992
vn -0.3793 -0.4146 -0.8272
vn -0.7361 -0.5075 -0.4478
vn -0.6529 0.0604 -0.7550
vn 0.6742 -0.4918 -0.5510
vn 0.2493 -0.5928 -0.7657
vn 0.5787 -0.0805 -0.8115
vn 0.5900 0.1617 0.7910
vn -0.6467 0.1478 0.7483
vn -0.9322 0.0860 -0.3516
vn 0.0042 0.0192 -0.9998
vn 0.9279 -0.1178 -0.3536
vn 0.3674 0.6216 0.6918
vn 0.6494 0.4596 0.6058
vn 0.1485 0.8027 0.5776
vn -0.7064 0.5460 0.4503
vn -0.1214 0.6457 0.7538
vn -0.4191 0.8425 0.3383
vn -0.7802 0.4631 -0.4205
vn -0.8943 0.4471 -0.0189
vn -0.2809 0.9005 -0.3319
vn 0.3004 0.3516 -0.8866
vn -0.2042 0.4395 -0.8747
vn 0.3122 0.8427 -0.4386
vn 0.8680 0.4560 0.1963
vn 0.7001 0.5477 -0.4582
vn 0.5106 0.8525 0.1112
vn 0.1158 0.9894 0.0870
usemtl Material.002
s 1
f 1//1 14//2 13//3
f 2//4 14//2 16//5
f 1//1 13//3 18//6
f 1//1 18//6 20//7
f 1//1 20//7 17//8
f 2//4 16//5 23//9
f 3//10 15//11 25//12
f 4//13 19//14 27//15
f 5//16 21//17 29//18
f 6//19 22//20 31//21
f 2//4 23//9 26//22
f 3//10 25//12 28//23
f 4//13 27//15 30//24
f 5//16 29//18 32//25
f 6//19 31//21 24//26
f 7//27 33//28 38//29
f 8//30 34//31 40//32
f 9//33 35//34 41//35
f 10//36 36//37 42//38
f 11//39 37//40 39//41
f 39//41 42//38 12//42
f 39//41 37//40 42//38
f 37//40 10//36 42//38
f 42//38 41//35 12//42
f 42//38 36//37 41//35
f 36//37 9//33 41//35
f 41//35 40//32 12//42
f 41//35 35//34 40//32
f 35//34 8//30 40//32
f 40//32 38//29 12//42
f 40//32 34//31 38//29
f 34//31 7//27 38//29
f 38//29 39//41 12//42
f 38//29 33//28 39//41
f 33//28 11//39 39//41
f 24//26 37//40 11//39
f 24//26 31//21 37//40
f 31//21 10//36 37//40
f 32//25 36//37 10//36
f 32//25 29//18 36//37
f 29//18 9//33 36//37
f 30//24 35//34 9//33
f 30//24 27//15 35//34
f 27//15 8//30 35//34
f 28//23 34//31 8//30
f 28//23 25//12 34//31
f 25//12 7//27 34//31
f 26//22 33//28 7//27
f 26//22 23//9 33//28
f 23//9 11//39 33//28
f 31//21 32//25 10//36
f 31//21 22//20 32//25
f 22//20 5//16 32//25
f 29//18 30//24 9//33
f 29//18 21//17 30//24
f 21//17 4//13 30//24
f 27//15 28//23 8//30
f 27//15 19//14 28//23
f 19//14 3//10 28//23
f 25//12 26//22 7//27
f 25//12 15//11 26//22
f 15//11 2//4 26//22
f 23//9 24//26 11//39
f 23//9 16//5 24//26
f 16//5 6//19 24//26
f 17//8 22//20 6//19
f 17//8 20//7 22//20
f 20//7 5//16 22//20
f 20//7 21//17 5//16
f 20//7 18//6 21//17
f 18//6 4//13 21//17
f 18//6 19//14 4//13
f 18//6 13//3 19//14
f 13//3 3//10 19//14
f 16//5 17//8 6//19
f 16//5 14//2 17//8
f 14//2 1//1 17//8
f 13//3 15//11 3//10
f 13//3 14//2 15//11
f 14//2 2//4 15//11
o Icosphere.003
v -1.032223 7.607872 1.529801
v -0.388525 8.312224 2.410142
v -1.668911 8.438885 2.587916
v -2.368202 8.142136 1.508994
v -1.682982 8.298534 0.610075
v -0.154416 8.388379 0.780008
v -0.729724 9.409775 2.583603
v -2.009237 9.420751 2.152459
v -1.990753 9.445204 0.936177
v -0.777426 9.562620 0.651769
v -0.202896 9.496496 1.553578
v -1.242840 10.072460 1.728656
v -1.237742 7.800547 2.191751
v -0.727839 7.630172 1.905759
v -0.887835 8.391804 2.720064
v 0.057329 8.298789 1.633385
v -0.784441 7.687603 1.104210
v -1.721731 7.793657 1.582336
v -2.206730 8.088422 2.315618
v -1.375901 7.595986 0.874465
v -1.990661 8.269382 1.075712
v -0.687738 8.156879 0.506875
v 0.116151 9.026671 2.010194
v -0.056967 8.753919 1.273309
v -1.050495 8.871882 2.832607
v -0.509345 8.715299 2.589593
v -2.366757 8.843034 1.839849
v -2.151260 8.873327 2.639240
v -1.785548 8.853120 0.485974
v -2.496547 8.879096 1.349396
v -0.630245 8.934886 0.512047
v -1.228096 8.707892 0.197775
v -0.269112 9.461886 2.382212
v -1.496968 9.628160 2.804824
v -2.252460 9.521011 1.389961
v -1.693901 9.457985 0.437539
v -0.211655 9.670690 0.816667
v -0.981505 10.116218 2.081909
v -0.523664 9.941254 1.412630
v -1.567018 9.981221 2.031024
v -1.588569 9.987665 1.174022
v -1.097899 9.813393 0.915309
vn -0.0402 -0.9972 0.0629
vn 0.3139 -0.9036 0.2914
vn -0.1030 -0.8350 0.5404
vn 0.6077 -0.4429 0.6591
vn 0.9075 -0.4187 0.0326
vn -0.4245 -0.9054 -0.0043
vn -0.2515 -0.8515 -0.4601
vn 0.4232 -0.8628 -0.2765
vn 0.9575 0.1547 0.2431
vn -0.1584 -0.4232 0.8921
vn 0.1599 -0.4211 0.8928
vn 0.1309 -0.0430 0.9904
vn -0.8048 -0.5468 -0.2307
vn -0.6296 -0.5801 0.5167
vn -0.9554 0.1411 0.2595
vn -0.5503 -0.4237 -0.7195
vn -0.6910 -0.4857 -0.5353
vn -0.6673 -0.0966 -0.7385
vn 0.8048 -0.1888 -0.5627
vn 0.3359 -0.4773 -0.8119
vn 0.5253 0.1198 -0.8424
vn 0.5409 -0.0497 0.8396
vn -0.6897 0.0630 0.7213
vn -0.9724 0.0480 -0.2281
vn -0.0202 -0.1102 -0.9937
vn 0.9391 0.1314 -0.3175
vn 0.3604 0.3795 0.8521
vn 0.6458 0.4622 0.6076
vn 0.1839 0.9370 0.2970
vn -0.7819 0.5311 0.3265
vn -0.2140 0.5250 0.8237
vn -0.4653 0.8529 0.2368
vn -0.7413 0.4365 -0.5098
vn -0.8213 0.5620 -0.0982
vn -0.2776 0.9130 -0.2989
vn 0.1545 0.5457 -0.8236
vn -0.4192 0.4661 -0.7791
vn 0.0670 0.8667 -0.4943
vn 0.8809 0.4731 0.0135
vn 0.6828 0.5127 -0.5205
vn 0.4534 0.8875 -0.0821
vn -0.0772 0.9914 -0.1056
usemtl Material.002
s 1
f 43//43 56//44 55//45
f 44//46 56//44 58//47
f 43//43 55//45 60//48
f 43//43 60//48 62//49
f 43//43 62//49 59//50
f 44//46 58//47 65//51
f 45//52 57//53 67//54
f 46//55 61//56 69//57
f 47//58 63//59 71//60
f 48//61 64//62 73//63
f 44//46 65//51 68//64
f 45//52 67//54 70//65
f 46//55 69//57 72//66
f 47//58 71//60 74//67
f 48//61 73//63 66//68
f 49//69 75//70 80//71
f 50//72 76//73 82//74
f 51//75 77//76 83//77
f 52//78 78//79 84//80
f 53//81 79//82 81//83
f 81//83 84//80 54//84
f 81//83 79//82 84//80
f 79//82 52//78 84//80
f 84//80 83//77 54//84
f 84//80 78//79 83//77
f 78//79 51//75 83//77
f 83//77 82//74 54//84
f 83//77 77//76 82//74
f 77//76 50//72 82//74
f 82//74 80//71 54//84
f 82//74 76//73 80//71
f 76//73 49//69 80//71
f 80//71 81//83 54//84
f 80//71 75//70 81//83
f 75//70 53//81 81//83
f 66//68 79//82 53//81
f 66//68 73//63 79//82
f 73//63 52//78 79//82
f 74//67 78//79 52//78
f 74//67 71//60 78//79
f 71//60 51//75 78//79
f 72//66 77//76 51//75
f 72//66 69//57 77//76
f 69//57 50//72 77//76
f 70//65 76//73 50//72
f 70//65 67//54 76//73
f 67//54 49//69 76//73
f 68//64 75//70 49//69
f 68//64 65//51 75//70
f 65//51 53//81 75//70
f 73//63 74//67 52//78
f 73//63 64//62 74//67
f 64//62 47//58 74//67
f 71//60 72//66 51//75
f 71//60 63//59 72//66
f 63//59 46//55 72//66
f 69//57 70//65 50//72
f 69//57 61//56 70//65
f 61//56 45//52 70//65
f 67//54 68//64 49//69
f 67//54 57//53 68//64
f 57//53 44//46 68//64
f 65//51 66//68 53//81
f 65//51 58//47 66//68
f 58//47 48//61 66//68
f 59//50 64//62 48//61
f 59//50 62//49 64//62
f 62//49 47//58 64//62
f 62//49 63//59 47//58
f 62//49 60//48 63//59
f 60//48 46//55 63//59
f 60//48 61//56 46//55
f 60//48 55//45 61//56
f 55//45 45//52 61//56
f 58//47 59//50 48//61
f 58//47 56//44 59//50
f 56//44 43//43 59//50
f 55//45 57//53 45//52
f 55//45 56//44 57//53
f 56//44 44//46 57//53
o Icosphere.002
v -1.028129 4.421142 -1.920438
v 0.083274 5.318497 -1.584370
v -1.394346 5.368347 -0.857029
v -1.941912 5.234134 -1.794761
v -1.256180 5.473625 -3.057019
v 0.243889 5.183914 -2.631149
v -0.416177 6.468219 -0.750840
v -1.740867 6.463980 -1.129265
v -1.713325 6.447814 -2.657631
v -0.629429 6.514916 -3.008318
v 0.295919 6.341208 -2.144070
v -0.850642 7.152111 -1.932094
v -0.997346 4.807802 -1.456476
v -0.273489 4.726169 -1.759447
v -0.346067 5.272036 -0.875607
v 0.337353 5.264259 -1.953956
v -0.432065 4.928427 -2.412809
v -1.726708 4.619075 -2.072551
v -1.821181 5.155212 -1.312598
v -0.898191 4.704343 -2.631394
v -1.675966 5.233338 -2.600015
v -0.469924 5.223712 -2.919399
v 0.493598 5.801984 -1.695071
v 0.342851 5.836399 -2.325652
v -1.056903 5.886492 -0.835055
v -0.227023 5.818444 -0.973742
v -2.245929 5.734918 -1.571332
v -1.429301 5.876661 -1.025051
v -1.644073 5.728518 -3.197734
v -2.115900 5.895173 -2.311313
v 0.018485 5.766583 -3.221080
v -0.690496 5.833177 -3.375846
v 0.080380 6.568738 -1.292418
v -1.151664 6.602581 -0.855223
v -2.093322 6.581484 -2.100556
v -1.219150 6.690598 -2.956126
v -0.129296 6.629272 -2.734108
v -0.517030 6.900305 -1.336004
v -0.031155 7.158802 -2.078708
v -1.305984 6.993131 -1.741333
v -1.612241 7.001241 -2.295097
v -0.765458 7.119165 -2.628230
vn 0.0176 -0.9888 0.1482
vn 0.4975 -0.8541 0.1516
vn -0.0660 -0.7939 0.6044
vn 0.7079 -0.4575 0.5380
vn 0.8344 -0.5392 0.1138
vn -0.6471 -0.7554 -0.1033
vn 0.0898 -0.7910 -0.6051
vn 0.4376 -0.8297 -0.3464
vn 0.9575 -0.0627 0.2816
vn -0.3958 -0.2818 0.8740
vn 0.4164 -0.3972 0.8178
vn -0.1653 -0.0022 0.9862
vn -0.9050 -0.4198 -0.0690
vn -0.6357 -0.5046 0.5842
vn -0.9415 -0.1288 0.3113
vn -0.1768 -0.6201 -0.7643
vn -0.6754 -0.5106 -0.5320
vn -0.5584 -0.1719 -0.8115
vn 0.7018 -0.6130 -0.3628
vn 0.1657 -0.6631 -0.7299
vn 0.5829 -0.0387 -0.8116
vn 0.5554 -0.0888 0.8268
vn -0.5251 0.0327 0.8504
vn -0.9273 -0.0887 -0.3636
vn 0.0350 -0.0651 -0.9973
vn 0.9518 0.0940 -0.2921
vn 0.3182 0.3111 0.8955
vn 0.7350 0.4392 0.5166
vn 0.1398 0.8624 0.4865
vn -0.6202 0.3992 0.6753
vn -0.2625 0.5117 0.8180
vn -0.3295 0.8864 0.3250
vn -0.7006 0.3979 -0.5923
vn -0.8548 0.5076 -0.1078
vn -0.5238 0.8294 -0.1944
vn 0.1919 0.5092 -0.8390
vn -0.2868 0.5584 -0.7784
vn 0.0383 0.8609 -0.5072
vn 0.9240 0.3252 -0.2008
vn 0.5990 0.5010 -0.6247
vn 0.5672 0.8224 -0.0441
vn -0.0945 0.9772 0.1903
usemtl Material.002
s 1
f 85//85 98//86 97//87
f 86//88 98//86 100//89
f 85//85 97//87 102//90
f 85//85 102//90 104//91
f 85//85 104//91 101//92
f 86//88 100//89 107//93
f 87//94 99//95 109//96
f 88//97 103//98 111//99
f 89//100 105//101 113//102
f 90//103 106//104 115//105
f 86//88 107//93 110//106
f 87//94 109//96 112//107
f 88//97 111//99 114//108
f 89//100 113//102 116//109
f 90//103 115//105 108//110
f 91//111 117//112 122//113
f 92//114 118//115 124//116
f 93//117 119//118 125//119
f 94//120 120//121 126//122
f 95//123 121//124 123//125
f 123//125 126//122 96//126
f 123//125 121//124 126//122
f 121//124 94//120 126//122
f 126//122 125//119 96//126
f 126//122 120//121 125//119
f 120//121 93//117 125//119
f 125//119 124//116 96//126
f 125//119 119//118 124//116
f 119//118 92//114 124//116
f 124//116 122//113 96//126
f 124//116 118//115 122//113
f 118//115 91//111 122//113
f 122//113 123//125 96//126
f 122//113 117//112 123//125
f 117//112 95//123 123//125
f 108//110 121//124 95//123
f 108//110 115//105 121//124
f 115//105 94//120 121//124
f 116//109 120//121 94//120
f 116//109 113//102 120//121
f 113//102 93//117 120//121
f 114//108 119//118 93//117
f 114//108 111//99 119//118
f 111//99 92//114 119//118
f 112//107 118//115 92//114
f 112//107 109//96 118//115
f 109//96 91//111 118//115
f 110//106 117//112 91//111
f 110//106 107//93 117//112
f 107//93 95//123 117//112
f 115//105 116//109 94//120
f 115//105 106//104 116//109
f 106//104 89//100 116//109
f 113//102 114//108 93//117
f 113//102 105//101 114//108
f 105//101 88//97 114//108
f 111//99 112//107 92//114
f 111//99 103//98 112//107
f 103//98 87//94 112//107
f 109//96 110//106 91//111
f 109//96 99//95 110//106
f 99//95 86//88 110//106
f 107//93 108//110 95//123
f 107//93 100//89 108//110
f 100//89 90//103 108//110
f 101//92 106//104 90//103
f 101//92 104//91 106//104
f 104//91 89//100 106//104
f 104//91 105//101 89//100
f 104//91 102//90 105//101
f 102//90 88//97 105//101
f 102//90 103//98 88//97
f 102//90 97//87 103//98
f 97//87 87//94 103//98
f 100//89 101//92 90//103
f 100//89 98//86 101//92
f 98//86 85//85 101//92
f 97//87 99//95 87//94
f 97//87 98//86 99//95
f 98//86 86//88 99//95
o Icosphere.001
v 2.848849 6.111858 -0.062475
v 3.743436 6.782062 0.833838
v 2.491385 6.721896 1.217423
v 1.494991 6.743875 -0.113511
v 2.297230 6.691813 -1.195285
v 3.607298 6.865070 -0.635940
v 3.042048 7.810029 1.083352
v 1.709049 7.947836 0.612040
v 1.842823 8.067949 -0.651310
v 3.114720 7.879296 -1.231197
v 3.974793 7.917916 0.146463
v 2.821897 8.544914 0.024765
v 2.479517 6.144292 0.597782
v 3.408274 6.236472 0.494620
v 3.053867 6.601450 0.941472
v 3.890221 6.541914 0.089034
v 3.327745 6.145828 -0.287700
v 2.190136 6.281938 0.054042
v 1.733687 6.707505 0.608215
v 2.454180 6.265218 -0.546072
v 1.951463 6.702180 -0.750191
v 3.004238 6.547607 -1.100627
v 3.958211 7.467647 0.357516
v 4.087270 7.241312 -0.384084
v 2.857253 7.370663 1.426459
v 3.489544 7.452799 1.124990
v 1.573524 7.461014 0.412268
v 1.882329 7.435883 1.113816
v 1.939705 7.471358 -1.041604
v 1.635732 7.314885 -0.342407
v 3.505774 7.413003 -0.951370
v 2.673073 7.327434 -1.193189
v 3.721236 7.903487 0.624051
v 2.513372 8.089459 0.958577
v 1.627853 7.917874 0.064217
v 2.452718 8.099002 -1.172718
v 3.698736 7.945191 -0.568438
v 2.842013 8.401298 0.671516
v 3.427447 8.375900 0.109312
v 2.080937 8.487257 0.389381
v 2.287697 8.547444 -0.499436
v 3.038653 8.452884 -0.547625
vn -0.0527 -0.9966 -0.0631
vn 0.3772 -0.8426 0.3844
vn -0.2137 -0.9043 0.3695
vn 0.6829 -0.3431 0.6449
vn 0.8451 -0.5340 -0.0266
vn -0.4693 -0.8809 -0.0611
vn -0.2900 -0.8991 -0.3278
vn 0.3871 -0.8775 -0.2831
vn 0.9385 0.0348 0.3434
vn -0.1542 -0.5050 0.8492
vn 0.2518 -0.5737 0.7794
vn 0.1195 0.0670 0.9905
vn -0.9005 -0.4069 -0.1535
vn -0.7566 -0.4966 0.4254
vn -0.9792 0.0501 0.1967
vn -0.3370 -0.4345 -0.8352
vn -0.7229 -0.5156 -0.4599
vn -0.6686 0.0427 -0.7424
vn 0.6750 -0.4185 -0.6075
vn 0.2875 -0.5317 -0.7966
vn 0.6018 -0.0419 -0.7975
vn 0.5669 0.1420 0.8115
vn -0.6261 0.1008 0.7732
vn -0.9463 0.0526 -0.3190
vn 0.0284 -0.0343 -0.9990
vn 0.9317 -0.0930 -0.3510
vn 0.2682 0.5776 0.7710
vn 0.6697 0.5016 0.5475
vn 0.1621 0.8315 0.5313
vn -0.7786 0.4491 0.4382
vn -0.1507 0.6075 0.7798
vn -0.4455 0.8480 0.2871
vn -0.7889 0.4678 -0.3983
vn -0.9249 0.3747 -0.0637
vn -0.3079 0.9066 -0.2885
vn 0.3471 0.2864 -0.8930
vn -0.2008 0.4931 -0.8465
vn 0.3161 0.8791 -0.3567
vn 0.8700 0.4819 0.1036
vn 0.7118 0.5255 -0.4660
vn 0.4940 0.8647 0.0908
vn 0.1296 0.9895 0.0641
usemtl Material.002
s 1
f 127//127 140//128 139//129
f 128//130 140//128 142//131
f 127//127 139//129 144//132
f 127//127 144//132 146//133
f 127//127 146//133 143//134
f 128//130 142//131 149//135
f 129//136 141//137 151//138
f 130//139 145//140 153//141
f 131//142 147//143 155//144
f 132//145 148//146 157//147
f 128//130 149//135 152//148
f 129//136 151//138 154//149
f 130//139 153//141 156//150
f 131//142 155//144 158//151
f 132//145 157//147 150//152
f 133//153 159//154 164//155
f 134//156 160//157 166//158
f 135//159 161//160 167//161
f 136//162 162//163 168//164
f 137//165 163//166 165//167
f 165//167 168//164 138//168
f 165//167 163//166 168//164
f 163//166 136//162 168//164
f 168//164 167//161 138//168
f 168//164 162//163 167//161
f 162//163 135//159 167//161
f 167//161 166//158 138//168
f 167//161 161//160 166//158
f 161//160 134//156 166//158
f 166//158 164//155 138//168
f 166//158 160//157 164//155
f 160//157 133//153 164//155
f 164//155 165//167 138//168
f 164//155 159//154 165//167
f 159//154 137//165 165//167
f 150//152 163//166 137//165
f 150//152 157//147 163//166
f 157//147 136//162 163//166
f 158//151 162//163 136//162
f 158//151 155//144 162//163
f 155//144 135//159 162//163
f 156//150 161//160 135//159
f 156//150 153//141 161//160
f 153//141 134//156 161//160
f 154//149 160//157 134//156
f 154//149 151//138 160//157
f 151//138 133//153 160//157
f 152//148 159//154 133//153
f 152//148 149//135 159//154
f 149//135 137//165 159//154
f 157//147 158//151 136//162
f 157//147 148//146 158//151
f 148//146 131//142 158//151
f 155//144 156//150 135//159
f 155//144 147//143 156//150
f 147//143 130//139 156//150
f 153//141 154//149 134//156
f 153//141 145//140 154//149
f 145//140 129//136 154//149
f 151//138 152//148 133//153
f 151//138 141//137 152//148
f 141//137 128//130 152//148
f 149//135 150//152 137//165
f 149//135 142//131 150//152
f 142//131 132//145 150//152
f 143//134 148//146 132//145
f 143//134 146//133 148//146
f 146//133 131//142 148//146
f 146//133 147//143 131//142
f 146//133 144//132 147//143
f 144//132 130//139 147//143
f 144//132 145//140 130//139
f 144//132 139//129 145//140
f 139//129 129//136 145//140
f 142//131 143//134 132//145
f 142//131 140//128 143//134
f 140//128 127//127 143//134
f 139//129 141//137 129//136
f 139//129 140//128 141//137
f 140//128 128//130 141//137
