# Blender v2.77 (sub 0) OBJ File: 'kamien.blend'
# www.blender.org
o Icosphere
v 0.613291 -0.014852 0.019896
v 2.249583 0.518909 0.306145
v 0.222796 0.378112 0.821036
v -0.777995 0.311909 0.084577
v -0.248244 0.298792 -0.786091
v 1.475728 0.467057 -0.623108
v 1.557178 1.385228 0.704099
v -0.514884 1.197426 0.535224
v -0.733715 1.100548 -0.466023
v 0.504912 1.309853 -0.740636
v 2.107934 1.419035 -0.123478
v 0.476685 1.731149 0.120060
v 0.374166 0.172237 0.447076
v 1.341280 0.106195 0.106496
v 1.186386 0.280946 0.605553
v 2.268403 0.530616 0.008524
v 0.733477 0.116954 -0.316354
v -0.320406 0.032148 0.210080
v -0.418884 0.377553 0.669021
v 0.299551 0.122176 -0.521124
v -0.521027 0.258847 -0.518649
v 0.825301 0.484031 -0.810271
v 2.378056 0.762668 0.124076
v 2.292474 0.711503 -0.067103
v 0.594236 0.906211 0.894646
v 1.863631 0.644076 0.706240
v -0.870078 0.834651 0.165500
v 0.031910 0.659299 0.862938
v -0.635936 0.607802 -0.605862
v -0.929177 0.607772 -0.101656
v 1.098740 0.678216 -0.798566
v 0.549745 0.655523 -0.870954
v 1.903359 1.388169 0.497535
v 0.706759 1.306485 0.747105
v -0.749342 1.213839 0.161511
v -0.194955 1.182632 -0.710422
v 1.706771 1.334541 -0.459725
v 1.478088 1.655131 0.442458
v 1.571860 1.642648 0.000180
v -0.402188 1.493734 0.151170
v -0.413990 1.508308 -0.180124
v 0.365905 1.555550 -0.452130
vn 0.0954 -0.8911 0.4437
vn 0.4154 -0.9096 -0.0095
vn 0.0398 -0.9069 0.4195
vn -0.0890 -0.9766 -0.1957
vn 0.1388 -0.9379 -0.3180
vn 0.8958 -0.4428 0.0392
vn 0.1853 -0.2623 0.9470
vn -0.8185 -0.2260 0.5283
vn -0.6200 -0.3762 -0.6885
vn 0.2560 -0.3052 -0.9173
vn 0.7327 0.1149 0.6708
vn 0.0069 -0.1428 0.9897
vn -0.8977 -0.2175 0.3833
vn -0.2204 0.2701 -0.9373
vn 0.5066 0.2095 -0.8363
vn 0.3608 0.7015 0.6146
vn -0.1706 0.8037 0.5700
vn -0.7296 0.6696 -0.1390
vn -0.1590 0.7125 -0.6834
vn 0.2360 0.8379 -0.4921
vn 0.0440 0.9526 -0.3009
vn 0.1357 0.8411 -0.5237
vn 0.1258 0.7844 -0.6074
vn -0.1496 0.9530 -0.2635
vn -0.2491 0.7760 -0.5795
vn -0.3773 0.7115 -0.5928
vn -0.2587 0.9646 0.0516
vn -0.6256 0.7781 0.0565
vn -0.5709 0.7225 0.3899
vn -0.1671 0.7083 0.6859
vn -0.1554 0.8222 0.5475
vn -0.0275 0.6916 0.7218
vn 0.0793 0.9968 -0.0113
vn 0.5216 0.8488 0.0866
vn 0.4139 0.8922 0.1807
vn 0.6264 0.1018 -0.7729
vn 0.5229 -0.0449 -0.8512
vn 0.2126 0.2855 -0.9345
vn -0.0767 0.1897 -0.9788
vn -0.2178 -0.0105 -0.9759
vn -0.4283 0.1670 -0.8881
vn -0.9455 0.3155 -0.0805
vn -0.9520 0.3026 -0.0464
vn -0.8118 0.2640 0.5209
vn -0.1906 0.3620 0.9125
vn -0.2223 0.3916 0.8929
vn 0.0159 0.3419 0.9396
vn 0.4998 0.2091 0.8405
vn 0.7256 0.1496 0.6717
vn 0.8376 0.4574 0.2987
vn 0.1198 0.2018 -0.9721
vn 0.1349 -0.1308 -0.9822
vn 0.0288 -0.2919 -0.9560
vn -0.8641 -0.0288 -0.5025
vn -0.7997 -0.3796 -0.4651
vn -0.7726 -0.5704 -0.2789
vn -0.6232 -0.1682 0.7637
vn -0.5380 0.3255 0.7776
vn -0.2205 -0.2885 0.9317
vn 0.1604 0.0692 0.9846
vn 0.0610 -0.3707 0.9267
vn 0.3275 -0.7646 0.5551
vn 0.8753 0.1930 -0.4435
vn 0.9053 -0.2607 -0.3355
vn 0.5957 -0.3760 -0.7098
vn 0.1438 -0.8069 -0.5729
vn 0.2488 -0.7990 -0.5475
vn 0.1070 -0.7109 -0.6951
vn -0.1575 -0.9405 -0.3012
vn -0.1597 -0.9542 -0.2529
vn -0.4902 -0.8614 -0.1330
vn -0.5544 -0.7178 0.4213
vn -0.0412 -0.8025 0.5952
vn -0.1050 -0.8885 0.4466
vn 0.3061 -0.9058 -0.2930
vn 0.3217 -0.8143 -0.4831
vn 0.1910 -0.9352 -0.2983
vn 0.0214 -0.8721 0.4888
vn 0.0579 -0.9365 0.3459
vn 0.3056 -0.8651 0.3978
s off
f 1//1 14//1 13//1
f 2//2 14//2 16//2
f 1//3 13//3 18//3
f 1//4 18//4 20//4
f 1//5 20//5 17//5
f 2//6 16//6 23//6
f 3//7 15//7 25//7
f 4//8 19//8 27//8
f 5//9 21//9 29//9
f 6//10 22//10 31//10
f 2//11 23//11 26//11
f 3//12 25//12 28//12
f 4//13 27//13 30//13
f 5//14 29//14 32//14
f 6//15 31//15 24//15
f 7//16 33//16 38//16
f 8//17 34//17 40//17
f 9//18 35//18 41//18
f 10//19 36//19 42//19
f 11//20 37//20 39//20
f 39//21 42//21 12//21
f 39//22 37//22 42//22
f 37//23 10//23 42//23
f 42//24 41//24 12//24
f 42//25 36//25 41//25
f 36//26 9//26 41//26
f 41//27 40//27 12//27
f 41//28 35//28 40//28
f 35//29 8//29 40//29
f 40//30 38//30 12//30
f 40//31 34//31 38//31
f 34//32 7//32 38//32
f 38//33 39//33 12//33
f 38//34 33//34 39//34
f 33//35 11//35 39//35
f 24//36 37//36 11//36
f 24//37 31//37 37//37
f 31//38 10//38 37//38
f 32//39 36//39 10//39
f 32//40 29//40 36//40
f 29//41 9//41 36//41
f 30//42 35//42 9//42
f 30//43 27//43 35//43
f 27//44 8//44 35//44
f 28//45 34//45 8//45
f 28//46 25//46 34//46
f 25//47 7//47 34//47
f 26//48 33//48 7//48
f 26//49 23//49 33//49
f 23//50 11//50 33//50
f 31//51 32//51 10//51
f 31//52 22//52 32//52
f 22//53 5//53 32//53
f 29//54 30//54 9//54
f 29//55 21//55 30//55
f 21//56 4//56 30//56
f 27//57 28//57 8//57
f 27//58 19//58 28//58
f 19//59 3//59 28//59
f 25//60 26//60 7//60
f 25//61 15//61 26//61
f 15//62 2//62 26//62
f 23//63 24//63 11//63
f 23//64 16//64 24//64
f 16//65 6//65 24//65
f 17//66 22//66 6//66
f 17//67 20//67 22//67
f 20//68 5//68 22//68
f 20//69 21//69 5//69
f 20//70 18//70 21//70
f 18//71 4//71 21//71
f 18//72 19//72 4//72
f 18//73 13//73 19//73
f 13//74 3//74 19//74
f 16//75 17//75 6//75
f 16//76 14//76 17//76
f 14//77 1//77 17//77
f 13//78 15//78 3//78
f 13//79 14//79 15//79
f 14//80 2//80 15//80
